<?xml version="1.0" encoding="iso-8859-1"?>
<!-- Generator: Adobe Illustrator 19.0.0, SVG Export Plug-In . SVG Version: 6.00 Build 0)  -->
<svg version="1.1" id="Capa_1" xmlns="http://www.w3.org/2000/svg" xmlns:xlink="http://www.w3.org/1999/xlink" x="0px" y="0px"
	 viewBox="0 0 512 512" style="enable-background:new 0 0 512 512;" xml:space="preserve">
<path style="fill:#ADACB2;" d="M430.625,110.941v348.96c0,24.627-78.184,44.599-174.625,44.599S81.385,484.528,81.385,459.901
	v-348.96C81.385,110.941,430.625,110.941,430.625,110.941z"/>
<g>
	<path style="fill:#8A8791;" d="M430.62,432.786v27.115c0,24.627-78.184,44.599-174.625,44.599S81.38,484.528,81.38,459.901v-27.115
		c0,24.627,78.174,44.599,174.615,44.599S430.62,457.413,430.62,432.786z"/>
	<path style="fill:#8A8791;" d="M430.615,110.941v30.776C388.082,161.88,325.617,174.6,256,174.6s-132.082-12.72-174.615-32.873
		v-30.786C81.385,110.941,430.615,110.941,430.615,110.941z"/>
</g>
<ellipse style="fill:#ADACB2;" cx="256" cy="92.2" rx="188.4" ry="56.2"/>
<path style="fill:#8A8791;" d="M421.799,49.849v25.924c0,23.389-74.231,42.349-165.799,42.349S90.201,99.161,90.201,75.773V54.616
	L421.799,49.849z"/>
<ellipse style="fill:#ADACB2;" cx="256" cy="49.849" rx="165.8" ry="42.35"/>
<rect x="214.846" y="318.443" transform="matrix(-0.9168 0.3993 -0.3993 -0.9168 668.1185 556.9334)" style="fill:#00D8DE;" width="122.408" height="59.229"/>
<rect x="175.532" y="322.816" transform="matrix(-0.6983 0.7158 -0.7158 -0.6983 605.5612 453.6794)" style="fill:#2DD626;" width="63.28" height="63.28"/>
<circle style="fill:#FF52A1;" cx="360.17" cy="409.74" r="30.993"/>
<path d="M451.9,92.2c0-11.453-7.611-21.872-22.601-31.018V49.849l0,0l0,0c0-15.505-18.237-28.024-54.206-37.211
	C343.189,4.488,300.895,0,256,0c-26.064,0-51.057,1.486-74.283,4.417c-4.11,0.519-7.021,4.271-6.502,8.38s4.272,7.019,8.38,6.502
	C206.201,16.446,230.562,15,256,15c43.679,0,84.655,4.322,115.382,12.17c33.948,8.671,42.917,18.626,42.917,22.678
	s-8.97,14.007-42.917,22.679c-30.727,7.848-71.703,12.17-115.382,12.17s-84.655-4.322-115.382-12.17
	c-33.948-8.671-42.917-18.626-42.917-22.679c0-4.77,11.269-16.183,53.916-25.241c4.052-0.861,6.639-4.843,5.778-8.895
	c-0.86-4.051-4.842-6.636-8.895-5.778c-30.018,6.375-65.8,18.476-65.8,39.914c0,0.121,0.011,0.24,0.013,0.361
	c-0.003,0.09-0.013,0.17-0.013,0.265v10.708C67.711,70.328,60.1,80.747,60.1,92.2c0,8.921,4.676,17.247,13.778,24.796v342.902
	c0,16.124,19.107,29.18,56.79,38.805C164.239,507.278,208.749,512,256,512s91.761-4.722,125.332-13.297
	c37.683-9.625,56.79-22.681,56.79-38.805V206c0-4.142-3.358-7.5-7.5-7.5s-7.5,3.358-7.5,7.5v253.897
	c0,4.698-9.583,15.097-45.501,24.271C345.228,492.443,302.035,497,256,497s-89.228-4.557-121.62-12.831
	c-35.918-9.174-45.501-19.573-45.501-24.271V126.722c8.693,4.535,19.301,8.689,31.759,12.405
	C156.897,149.943,204.97,155.9,256,155.9s99.103-5.957,135.362-16.773c12.459-3.716,23.066-7.87,31.759-12.405v48.733
	c0,4.142,3.358,7.5,7.5,7.5s7.5-3.358,7.5-7.5v-58.336c0-0.04-0.005-0.078-0.006-0.117C447.222,109.451,451.9,101.123,451.9,92.2z
	 M136.906,87.061C168.811,95.21,211.105,99.698,256,99.698s87.189-4.488,119.094-12.637c17.095-4.366,30.175-9.487,39.206-15.322
	v4.034c0,4.052-8.97,14.007-42.917,22.678c-30.727,7.848-71.703,12.17-115.382,12.17s-84.655-4.322-115.382-12.17
	C106.67,89.78,97.701,79.825,97.701,75.773v-4.034C106.731,77.573,119.812,82.694,136.906,87.061z M387.075,124.753
	C352.168,135.166,305.618,140.9,256,140.9s-96.168-5.734-131.075-16.147C88.189,113.795,75.1,100.752,75.1,92.2
	c0-4.077,2.768-8.488,7.941-12.884c2.601,13.877,20.68,25.193,53.865,33.669c31.904,8.149,74.199,12.637,119.094,12.637
	s87.189-4.488,119.094-12.637c33.185-8.476,51.263-19.791,53.865-33.668c5.173,4.396,7.941,8.807,7.941,12.883
	C436.9,100.752,423.811,113.795,387.075,124.753z"/>
<path d="M214.012,46.752c0-5.65,4.597-10.247,10.247-10.247h63.481c5.65,0,10.247,4.597,10.247,10.247c0,4.142,3.358,7.5,7.5,7.5
	s7.5-3.358,7.5-7.5c0-13.921-11.326-25.247-25.247-25.247h-63.481c-13.921,0-25.247,11.326-25.247,25.247c0,4.142,3.358,7.5,7.5,7.5
	S214.012,50.894,214.012,46.752z"/>
<path d="M138.02,338.83c-4.142,0-7.5,3.358-7.5,7.5v84.928c0,4.142,3.358,7.5,7.5,7.5s7.5-3.358,7.5-7.5V346.33
	C145.52,342.188,142.162,338.83,138.02,338.83z"/>
<path d="M145.52,168.451c0-4.142-3.358-7.5-7.5-7.5s-7.5,3.358-7.5,7.5v146.466c0,4.142,3.358,7.5,7.5,7.5s7.5-3.358,7.5-7.5
	V168.451z"/>
<path d="M295.33,458.82c4.142,0,7.5-3.358,7.5-7.5v-74.435l44.155-19.229c3.797-1.654,5.536-6.073,3.882-9.871l-23.65-54.31
	c-1.654-3.797-6.071-5.533-9.871-3.882l-14.516,6.323V188.51c0-4.142-3.358-7.5-7.5-7.5s-7.5,3.358-7.5,7.5v113.941l-53.849,23.457
	l-9.811-9.569V188.51c0-4.142-3.358-7.5-7.5-7.5s-7.5,3.358-7.5,7.5v114.143c-2.682-0.968-5.798-0.363-7.918,1.81l-44.18,45.29
	c-1.389,1.424-2.155,3.341-2.131,5.331c0.025,1.989,0.838,3.887,2.262,5.275l45.3,44.189c1.402,1.367,3.282,2.131,5.237,2.131
	c0.031,0,0.063,0,0.094,0c0.452-0.006,0.898-0.057,1.335-0.142v44.783c0,4.142,3.358,7.5,7.5,7.5s7.5-3.358,7.5-7.5v-50.337
	l0.724,1.662c1.229,2.823,3.986,4.507,6.88,4.507c1,0,2.016-0.201,2.991-0.625l53.065-23.109v67.903
	C287.83,455.462,291.188,458.82,295.33,458.82z M207.607,388.572l-34.561-33.714l33.707-34.553l34.561,33.708L207.607,388.572z
	 M233.1,383.919l24.189-24.802c1.389-1.424,2.155-3.342,2.13-5.331s-0.839-3.887-2.264-5.276l-11.578-11.292l70.88-30.877
	l17.662,40.557l-98.468,42.881L233.1,383.919z"/>
<path d="M360.169,448.233c21.225,0,38.493-17.268,38.493-38.493c0-13.349-6.833-25.129-17.182-32.036V168.451
	c0-4.142-3.358-7.5-7.5-7.5s-7.5,3.358-7.5,7.5v203.322c-2.055-0.34-4.161-0.526-6.311-0.526c-21.226,0-38.494,17.268-38.494,38.494
	C321.676,430.965,338.944,448.233,360.169,448.233z M360.169,386.246c12.954,0,23.493,10.539,23.493,23.494
	c0,12.954-10.539,23.493-23.493,23.493c-12.955,0-23.494-10.539-23.494-23.493C336.676,396.785,347.215,386.246,360.169,386.246z"/>
<g>
</g>
<g>
</g>
<g>
</g>
<g>
</g>
<g>
</g>
<g>
</g>
<g>
</g>
<g>
</g>
<g>
</g>
<g>
</g>
<g>
</g>
<g>
</g>
<g>
</g>
<g>
</g>
<g>
</g>
</svg>
